# Blender v2.79 (sub 0) OBJ File: 'gibs.blend'
# www.blender.org
g bone03
v 0.442994 -0.244849 -1.268129
v -0.257315 0.504813 1.341009
v 0.340771 -0.242150 -0.711799
v -0.207122 0.342551 1.399893
v -0.417226 0.068581 1.002850
v -0.469388 0.148526 1.135130
v -0.421693 0.088348 1.237505
v -0.181992 0.347299 1.090808
v 0.451988 -0.282091 -1.265516
v -0.438955 0.469068 1.325041
v -0.327696 0.336600 1.073828
v 0.351543 -0.175915 -0.727574
v 0.335668 -0.189739 -0.730938
v 0.343138 -0.177249 -0.731256
v 0.335897 -0.199878 -0.727605
vt 0.181936 0.808566
vt 0.126039 0.810547
vt 0.150917 0.740523
vt 0.130925 0.274166
vt 0.169292 0.140959
vt 0.181936 0.142682
vt 0.221346 0.190495
vt 0.323642 0.211722
vt 0.317540 0.691013
vt 0.311264 0.690617
vt 0.200766 0.227457
vt 0.181936 0.175453
vt -0.000371 0.783279
vt 0.462377 0.310621
vt 0.408767 0.207940
vt 0.450423 0.140959
vt 0.498107 0.161294
vt 0.498107 0.282735
vt 0.335216 0.821837
vt 0.284065 0.688894
vt 0.306020 0.690285
vt 0.353038 0.140959
vt 0.159010 0.272438
vt 0.353038 0.798901
vt 0.358040 0.736118
vt 0.402700 0.748013
vt 0.408767 0.815222
vt 0.408767 0.140959
vt 0.386380 0.272801
vt 0.383534 0.272720
vt 0.353038 0.820123
vn 0.1050 0.9210 0.3750
vn 0.4515 -0.2076 0.8678
vn 0.6013 0.7859 -0.1441
vn 0.4599 -0.8791 0.1247
vn -0.2331 0.9724 0.0124
vn -0.2217 0.9745 -0.0334
vn -0.9966 -0.0723 0.0387
vn -0.4659 0.7317 -0.4975
vn -0.4887 0.8208 -0.2958
vn -0.9271 0.1993 -0.3174
vn -0.8396 -0.4825 -0.2494
vn -0.2035 -0.7100 0.6742
vn -0.7792 0.5875 0.2181
vn -0.9243 -0.3009 -0.2348
vn 0.6730 0.7392 -0.0243
s 1
f 2/1/1 4/2/2 8/3/3
f 3/4/4 9/5/5 1/6/6
f 6/7/7 11/8/8 14/9/9 13/10/10
f 5/11/11 7/12/12 6/7/7
f 4/2/2 7/13/12 3/4/4
f 7/14/12 4/15/2 2/16/1 10/17/13 6/18/7
f 9/19/5 3/20/4 15/21/14
f 6/7/7 10/22/13 11/8/8
f 3/4/4 12/23/15 8/3/3 4/2/2
f 5/11/11 6/7/7 13/10/10 15/21/14
f 2/24/1 8/25/3 11/26/8 10/27/13
f 1/28/6 14/29/9 12/30/15
f 13/10/10 14/9/9 1/31/6
f 12/23/15 3/4/4 1/6/6
f 12/30/15 14/29/9 11/26/8 8/25/3
f 15/21/14 3/20/4 7/12/12 5/11/11
f 15/21/14 13/10/10 1/31/6 9/19/5
g gib03_gib01.001
v 0.000000 -0.372091 0.000000
v 0.693957 0.032138 0.453508
v -0.340592 -0.213536 0.786082
v -0.394467 0.075661 -0.196827
v -0.276385 -0.309749 -0.655818
v 0.723600 -0.309749 -0.718719
v -0.435313 0.310482 0.628303
v 0.276385 0.102978 -0.969222
v 0.391268 0.309749 0.000000
v 0.000000 0.361350 0.000000
v -0.009695 0.221002 0.845548
v -0.077838 0.381107 -0.708813
v -0.275122 0.434557 -0.484618
vt 0.781800 0.379582
vt 0.656196 0.388702
vt 0.749793 0.178913
vt 0.750742 0.630077
vt 0.815730 0.332320
vt 0.765745 0.149141
vt 0.903927 0.229608
vt 0.900715 0.398786
vt 0.840697 0.485529
vt 0.647923 0.392892
vt 0.724855 0.654892
vt 0.597484 0.542223
vt 0.844507 0.050145
vt 0.766272 0.804440
vt 0.784298 0.592905
vt 0.858335 0.702453
vt 0.519179 0.438392
vt 0.556707 0.349435
vt 0.860330 0.556419
vt 0.896009 0.403999
vt 0.951877 0.605727
vt 0.641129 0.778611
vt 0.560213 0.572209
vt 0.640010 0.779851
vt 0.680502 0.926060
vt 0.604636 0.905105
vt 0.671621 0.744833
vt 0.721263 0.810814
vt 0.665648 0.872423
vt 0.924565 0.477682
vt 0.944859 0.349884
vt 0.994608 0.529520
vt 0.942554 0.540870
vt 0.572230 0.751181
vt 0.544320 0.682296
vt 0.677144 0.216016
vt 0.709944 0.823353
vt 0.737110 0.921445
vt 0.681142 0.916434
vn -0.1678 -0.9769 0.1319
vn 0.8507 0.0350 0.5245
vn -0.4690 -0.6117 0.6370
vn 0.7804 -0.4224 -0.4610
vn -0.9913 0.0521 -0.1209
vn -0.7009 -0.5039 -0.5048
vn 0.4229 0.9048 0.0487
vn -0.6751 0.6496 0.3497
vn 0.1225 0.3806 -0.9166
vn 0.2370 0.5329 0.8123
vn -0.0316 0.9966 0.0754
vn -0.2546 0.6382 -0.7265
vn -0.5645 0.7309 -0.3836
s 1
f 16/32/16 17/33/17 18/34/18
f 17/33/17 16/32/16 21/35/19
f 16/36/16 18/37/18 19/38/20
f 16/36/16 19/38/20 20/39/21
f 16/32/16 20/40/21 21/35/19
f 17/41/17 21/42/19 24/43/22
f 19/38/20 18/37/18 22/44/23
f 21/45/19 20/46/21 23/47/24
f 22/48/23 26/49/25 17/41/17
f 20/50/21 19/51/20 23/52/24
f 21/42/19 23/53/24 24/43/22
f 17/41/17 24/43/22 25/54/26
f 22/48/23 17/41/17 25/54/26
f 19/55/20 22/56/23 25/57/26
f 24/43/22 23/53/24 25/54/26
f 18/58/18 26/59/25 22/60/23
f 27/61/27 23/62/24 19/63/20 28/64/28
f 27/65/27 28/66/28 25/54/26 23/53/24
f 18/34/18 17/33/17 26/67/25
f 19/68/20 25/69/26 28/70/28
