# Blender v2.79 (sub 0) OBJ File: 'barreldebris.blend'
# www.blender.org
g barreldebris04
v 0.040346 -0.890498 -0.841124
v 0.024620 1.007813 -0.688623
v 0.149616 -0.890498 -0.841124
v 0.067101 0.992187 -0.688623
v -0.054635 -0.822882 -0.500000
v -0.138575 -1.000000 0.000000
v -0.054635 -1.000000 0.500000
v 0.024241 0.990569 0.500000
v -0.085467 0.990569 0.000000
v 0.015015 1.011346 -0.500000
v 0.054635 -1.000000 0.500000
v -0.029305 -1.000000 0.000000
v 0.054635 -0.822882 -0.500000
v 0.076705 0.988654 -0.500000
v -0.042007 1.009431 0.000000
v 0.067701 1.009431 0.500000
v -0.048045 -0.229186 0.879378
v -0.114604 0.000000 0.879378
v -0.048045 0.229186 0.879378
v -0.048045 0.500000 -0.879378
v -0.048045 0.000000 -0.879378
v -0.048045 -0.500000 -0.879378
v 0.048045 0.500000 -0.879378
v 0.048045 0.000000 -0.879378
v 0.048045 -0.500000 -0.879378
v 0.048045 0.229186 0.879378
v -0.009857 0.000000 0.879378
v 0.048045 -0.229186 0.879378
v 0.045315 0.500000 -0.500000
v 0.045315 0.000000 -0.500000
v 0.173272 -0.472573 -0.416149
v 0.045315 0.500000 0.000000
v -0.144082 0.000000 0.000000
v -0.038625 -0.500000 0.000000
v 0.045315 0.500000 0.500000
v -0.012587 0.000000 0.500000
v 0.045315 -0.500000 0.500000
v -0.045315 0.500000 0.500000
v -0.111875 0.000000 0.500000
v -0.045315 -0.500000 0.500000
v -0.045315 0.500000 0.000000
v -0.234712 0.000000 0.000000
v -0.129255 -0.500000 0.000000
v -0.045315 0.500000 -0.500000
v -0.045315 0.000000 -0.500000
v 0.082642 -0.472573 -0.416149
v -0.140013 0.121510 -0.250000
v -0.045315 0.500000 -0.250000
v -0.049384 0.121510 -0.250000
v 0.045315 0.500000 -0.250000
v -0.048045 -0.250000 -0.879378
v 0.048045 -0.250000 -0.879378
v 0.109293 -0.236287 -0.519414
v 0.018663 -0.236287 -0.519414
v -0.081325 -0.114593 0.879378
v 0.019094 -0.114593 0.879378
v -0.091354 -0.250000 -0.079116
v 0.016364 -0.250000 0.500000
v -0.078595 -0.250000 0.500000
v -0.181984 -0.250000 -0.079116
v -0.096605 -0.911441 -0.250000
v 0.012665 -0.911441 -0.250000
v -0.023307 -0.581697 -0.208074
v 0.067323 -0.581697 -0.208074
vt 0.919002 0.897239
vt 0.056195 0.898535
vt 0.059713 0.582013
vt 0.919001 0.261496
vt 0.752681 0.031046
vt 1.005396 0.097227
vt 0.997619 0.135918
vt 0.752681 0.118562
vt 0.637522 0.966805
vt 0.645604 0.983290
vt 0.572433 0.999913
vt 0.572688 0.976227
vt 0.171488 0.980466
vt 0.178369 0.990102
vt 0.094992 0.992070
vt 0.103016 0.984523
vt 0.015550 0.028333
vt 0.015550 -0.068228
vt 0.209508 0.015706
vt 0.209508 0.112268
vt 0.351653 0.149357
vt 0.351653 0.052795
vt 0.493799 0.089884
vt 0.493799 0.186445
vt 0.778091 0.015706
vt 0.778091 0.112268
vt 1.000000 0.777550
vt 0.891540 0.979811
vt 0.784292 0.978359
vt 0.784292 0.777550
vt 0.158355 0.731199
vt 0.927513 0.731199
vt 0.927511 0.261962
vt 0.158354 0.261962
vt 0.215708 0.777550
vt 0.215708 0.979146
vt 0.500000 0.979146
vt 0.500000 0.777550
vt 0.642146 0.622012
vt 0.642146 0.777550
vt 0.784292 0.777550
vt 0.784292 0.572078
vt 0.215708 0.161135
vt 0.215708 0.366607
vt 0.500000 0.366607
vt 0.500000 0.161135
vt 0.215708 0.469342
vt 0.215708 0.572078
vt 0.500000 0.572078
vt 0.544984 0.469342
vt 0.000000 0.524987
vt 0.000000 0.572078
vt 0.000000 0.666260
vt 0.540344 0.173904
vt 0.534976 0.471168
vt 0.233622 0.464796
vt 0.238990 0.167531
vt 0.583464 0.622486
vt 0.539585 0.775200
vt 0.232411 0.764371
vt 0.233074 0.614578
vt 0.909743 0.186122
vt 0.935494 0.999901
vt 0.000099 0.999902
vt 0.000098 0.169869
vt 0.691779 0.224435
vt 0.674256 0.423939
vt 0.844023 0.253448
vt 0.844023 0.485458
vt 0.695359 0.485458
vt 0.691998 0.167531
vt 0.978249 0.206134
vt 1.000000 0.366607
vt 0.736615 0.377877
vt 0.784292 0.233920
vt 1.000000 0.469342
vt 1.000000 0.572078
vt 0.784292 0.572078
vt 0.795330 0.474978
vt 0.446827 0.092195
vt 0.503854 0.065827
vt 0.503854 -0.029574
vt 0.446827 0.000736
vt 0.617909 0.118562
vt 0.617909 0.031046
vt 0.006827 0.764096
vt 0.006789 0.693818
vt 0.233422 1.063656
vt 0.006408 0.904651
vt 0.060695 0.111551
vt 0.255027 0.031046
vt 0.255027 0.118562
vt 0.060695 0.211071
vt 0.379441 0.031046
vt 0.503854 0.031046
vt 0.503854 0.118562
vt 0.379441 0.118562
vt 0.784292 0.233920
vt 0.736615 0.377877
vt 1.000000 0.366607
vt 0.978249 0.206134
vt 0.795330 0.474978
vt 1.000000 0.572078
vt 1.000000 0.469342
vt 1.000000 0.777550
vt 0.993799 0.106444
vt 0.993799 0.021530
vt 0.778091 0.023942
vt 0.778091 0.104032
vt 1.006201 0.036545
vt 0.996814 -0.003037
vt 0.752681 0.033533
vt 0.752681 0.116076
vt 0.250625 0.856754
vt 0.261429 0.889798
vt 0.351653 0.104032
vt 0.351653 0.023942
vt 0.209508 0.023942
vt 0.209508 0.104032
vt 0.418112 0.920376
vt 0.432060 0.891461
vt 0.351653 0.187717
vt 0.209508 0.104032
vt 0.209508 0.023942
vt 0.351653 0.107627
vt 0.618702 0.101256
vt 0.600370 0.050330
vt 0.611912 0.029354
vt 0.641688 0.090254
vt 0.500087 0.098007
vt 0.475789 0.091799
vt 0.477476 0.024582
vt 0.495707 0.035652
vt 0.993799 0.106444
vt 0.778091 0.104032
vt 0.778091 0.023942
vt 0.993799 0.021530
vt 0.006201 0.124565
vt 0.255027 0.116076
vt 0.255027 0.033533
vt 0.006201 0.025044
vt 0.540827 0.000087
vt 0.545861 0.021458
vt 0.493799 0.104032
vt 0.493799 0.023942
vt 1.006091 0.188432
vt 0.992687 0.485458
vt 0.612250 0.174828
vt 0.640046 0.165090
vt 0.489566 0.161963
vt 0.469071 0.159035
vt 0.006311 0.623577
vt 0.389799 0.118562
vt 0.389799 0.031046
vt 0.000000 0.477896
vt 0.517878 0.212490
vt 0.493569 0.210938
vt 0.479170 0.319902
vt 0.450224 0.294818
vt 0.618308 0.333034
vt 0.642146 0.197528
vt 0.719880 0.236923
vt 0.691560 0.245817
vn -0.9011 0.3760 0.2159
vn -0.4382 0.6991 0.5649
vn -0.4463 0.7748 -0.4477
vn -0.6719 0.1650 -0.7220
vn 0.6828 0.5580 -0.4716
vn 0.6727 0.1206 -0.7300
vn 0.6789 0.4335 0.5925
vn 0.3527 0.7362 -0.5776
vn -0.7102 0.4425 -0.5476
vn -0.6028 0.4488 0.6597
vn 0.5035 0.6785 0.5349
vn -0.5187 -0.6910 -0.5033
vn 0.6140 -0.6252 -0.4817
vn 0.5149 -0.6268 0.5848
vn -0.6655 -0.5181 0.5373
vn -0.5259 -0.3863 -0.7578
vn 0.6409 -0.4619 -0.6131
vn 0.6201 -0.7776 -0.1043
vn -0.7165 -0.6800 -0.1551
vn 0.6336 -0.5638 0.5298
vn -0.5288 -0.5820 0.6177
vn 0.8920 0.2541 0.3739
vn 0.9300 0.1664 -0.3278
vn 0.8705 0.1863 0.4556
vn -0.7683 0.3617 0.5281
vn -0.8452 0.4608 -0.2708
vn -0.8670 -0.4538 -0.2055
vn -0.6194 0.7784 -0.1015
vn -0.8304 -0.3785 0.4089
vn -0.7502 -0.3088 0.5846
vn -0.9209 0.0831 -0.3807
vn -0.9768 -0.1742 0.1247
vn -0.9946 0.0127 0.1032
vn -0.9429 -0.0849 -0.3221
vn -0.6965 -0.0884 -0.7120
vn -0.6778 -0.1237 0.7248
vn -0.7518 -0.0001 0.6594
vn -0.5381 0.4206 0.7304
vn 0.8523 0.3094 -0.4216
vn 0.8864 -0.1991 0.4179
vn 0.5759 0.0685 -0.8146
vn 0.7793 -0.2822 -0.5595
vn 0.9936 -0.0123 -0.1121
vn 0.9785 0.1589 -0.1311
vn 0.7468 0.4454 -0.4938
vn 0.7107 -0.6830 0.1685
vn 0.7640 0.6329 0.1252
vn 0.6139 -0.0182 -0.7891
vn 0.7383 0.0968 0.6674
vn 0.6454 0.0699 -0.7606
vn 0.6913 0.0463 -0.7211
vn 0.8320 -0.2381 0.5011
vn 0.8067 0.2272 0.5455
vn 0.7179 0.1140 0.6868
vn 0.6652 0.0001 0.7467
vn 0.6814 0.2980 0.6685
vn -0.7606 -0.0401 -0.6479
vn -0.7587 -0.0813 -0.6464
vn -0.7222 -0.0486 -0.6899
vn -0.5166 0.0579 0.8542
vn -0.6933 0.0020 0.7207
vn -0.5304 -0.4154 0.7389
vn 0.6893 -0.3024 0.6583
vn -0.4241 0.5421 -0.7254
s 1
f 44/1/1 10/2/2 2/3/3 20/4/4
f 20/5/4 2/6/3 4/7/5 23/8/6
f 4/9/5 2/10/3 10/11/2 14/12/7
f 15/13/8 9/14/9 8/15/10 16/16/11
f 1/17/12 3/18/13 13/19/14 5/20/15
f 61/21/16 62/22/17 12/23/18 6/24/19
f 6/24/19 12/23/18 11/25/20 7/26/21
f 23/27/6 4/28/5 14/29/7 29/30/22
f 32/31/23 15/32/8 16/33/11 35/34/24
f 38/35/25 8/36/10 9/37/9 41/38/26
f 47/39/27 48/40/28 44/41/1 45/42/29
f 7/43/21 40/44/30 43/45/31 6/46/19
f 59/47/32 39/48/33 42/49/34 60/50/35
f 39/48/33 38/35/25 41/38/26 42/49/34
f 55/51/36 18/52/37 39/48/33 59/47/32
f 18/52/37 19/53/38 38/35/25 39/48/33
f 12/54/18 34/55/39 37/56/40 11/57/20
f 57/58/41 33/59/42 36/60/43 58/61/44
f 33/62/42 32/63/23 35/64/24 36/65/43
f 62/66/17 64/67/45 34/55/39 12/54/18
f 49/68/46 50/69/47 32/70/23 33/71/42
f 3/72/13 25/73/48 31/74/49 13/75/14
f 52/76/50 24/77/51 30/78/52 53/79/53
f 24/77/51 23/27/6 29/30/22 30/78/52
f 56/80/54 27/81/55 18/82/37 55/83/36
f 27/81/55 26/84/56 19/85/38 18/82/37
f 58/61/44 36/60/43 27/86/55 56/87/54
f 36/60/43 35/88/24 26/89/56 27/86/55
f 1/90/12 22/91/57 25/92/48 3/93/13
f 51/94/58 21/95/59 24/96/51 52/97/50
f 21/95/59 20/5/4 23/8/6 24/96/51
f 5/98/15 46/99/60 22/100/57 1/101/12
f 54/102/61 45/42/29 21/103/59 51/104/58
f 45/42/29 44/41/1 20/105/4 21/103/59
f 19/106/38 26/107/56 35/108/24 38/109/25
f 16/110/11 8/111/10 38/112/25 35/113/24
f 9/14/9 15/13/8 32/114/23 41/115/26
f 48/116/28 50/117/47 29/118/22 44/119/1
f 14/12/7 10/11/2 44/120/1 29/121/22
f 47/122/27 45/123/29 30/124/52 49/125/46
f 53/126/53 30/127/52 45/128/29 54/129/61
f 57/130/41 60/131/35 42/132/34 33/133/42
f 17/134/62 40/135/30 37/136/40 28/137/63
f 11/138/20 37/139/40 40/140/30 7/141/21
f 42/132/34 47/142/27 49/143/46 33/133/42
f 41/144/26 32/145/23 50/117/47 48/116/28
f 30/146/52 29/147/22 50/69/47 49/68/46
f 42/49/34 41/38/26 48/40/28 47/39/27
f 31/148/49 53/126/53 54/129/61 46/149/60
f 46/99/60 54/102/61 51/104/58 22/100/57
f 22/91/57 51/94/58 52/97/50 25/92/48
f 25/73/48 52/76/50 53/79/53 31/74/49
f 34/150/39 43/151/31 60/131/35 57/130/41
f 37/56/40 58/61/44 56/87/54 28/152/63
f 28/153/63 56/80/54 55/83/36 17/154/62
f 34/55/39 57/58/41 58/61/44 37/56/40
f 17/155/62 55/51/36 59/47/32 40/44/30
f 40/44/30 59/47/32 60/50/35 43/45/31
f 43/151/31 34/150/39 64/156/45 63/157/64
f 63/157/64 64/156/45 62/158/17 61/159/16
f 6/46/19 43/45/31 63/160/64 61/161/16
f 5/162/15 13/163/14 31/148/49 46/149/60
