# Blender v2.79 (sub 0) OBJ File: 'gibs.blend'
# www.blender.org
mtllib model.mtl
g gib01
v 0.463596 -0.286522 0.336818
v -0.188059 -0.553210 0.355483
v -0.520971 -0.373216 -0.203886
v 0.463596 -0.286522 -0.597259
v -0.030689 0.352958 0.522846
v 0.177074 0.286522 -0.805429
v 0.573040 0.286522 0.000000
v -0.087681 0.511743 -0.145997
vt 0.743052 0.433762
vt 0.533256 0.522989
vt 0.409701 0.233589
vt 0.475087 0.522989
vt 0.636272 0.690443
vt 0.409701 0.833170
vt 0.743052 0.145031
vt 0.104584 0.592780
vt 0.309864 0.703030
vt 0.082899 0.912214
vt 0.292755 0.443299
vt 0.000000 0.498869
vt 0.009120 0.306191
vt 0.636272 1.000000
vt 0.366531 0.931295
vt 0.119248 0.145607
vt 0.394268 0.000000
vt 0.440308 0.000000
vt 0.884947 0.535864
vt 0.743052 0.270908
vt 0.984465 0.359050
vt 0.994089 0.000000
vn 0.6905 -0.4466 0.5689
vn -0.3352 -0.7579 0.5596
vn 0.5652 -0.5351 -0.6279
vn -0.8711 -0.4182 -0.2576
vn 0.8429 0.5215 0.1325
vn -0.2097 0.5641 0.7986
vn 0.0395 0.4403 -0.8970
vn -0.4072 0.9084 -0.0948
usemtl None
s 1
f 1/1/1 2/2/2 4/3/3
f 2/4/2 3/5/4 4/6/3
f 1/1/1 4/3/3 7/7/5
f 2/8/2 1/9/1 5/10/6
f 3/11/4 2/12/2 5/13/6
f 4/6/3 3/5/4 6/14/7
f 1/9/1 7/15/5 5/10/6
f 3/11/4 5/13/6 8/16/8
f 3/11/4 8/16/8 6/17/7
f 4/3/3 6/18/7 7/7/5
f 5/19/6 7/20/5 8/21/8
f 7/20/5 6/22/7 8/21/8
