# Blender v2.79 (sub 0) OBJ File: 'barreldebris.blend'
# www.blender.org
g barreldebris03
v -0.133313 -1.000000 0.961786
v 0.030141 1.000000 0.851003
v -0.053177 -1.000000 -1.000000
v -0.011275 0.865182 -0.952772
v 0.053177 -1.000000 1.000000
v 0.048407 1.000000 0.851003
v -0.004219 -1.000000 -1.000000
v 0.012537 0.865182 -0.952772
v -0.107712 -0.817927 -0.464090
v 0.034834 -1.000000 0.015160
v 0.097245 -0.948089 0.456196
v 0.139883 1.000000 0.494410
v 0.055705 0.772943 0.015160
v -0.005744 1.000000 -0.464090
v 0.279322 -0.948089 0.464090
v 0.136775 -1.000000 -0.015160
v -0.005771 -0.817927 -0.494410
v 0.007734 1.000000 -0.494410
v 0.115904 0.772943 -0.015160
v 0.200083 1.000000 0.464090
v -0.446523 -0.470824 0.780962
v 0.036777 0.470824 -0.876888
v 0.081612 0.470824 -0.847565
v -0.352244 -0.470824 0.848499
v -0.040635 0.232781 -0.435061
v -0.020188 0.007138 0.010660
v 0.000260 -0.218505 0.456381
v -0.185240 -0.232781 0.415773
v -0.125552 -0.007138 0.008266
v -0.146000 0.218505 -0.437455
vt 0.718727 0.683956
vt 0.732045 1.009224
vt 0.976386 0.953112
vt 0.938444 0.788975
vt 0.315641 0.141667
vt 0.148769 0.129700
vt 0.148769 0.135630
vt 0.315641 0.152834
vt 0.271810 0.502067
vt 0.267955 1.009224
vt 0.074499 1.009224
vt 0.075750 0.397049
vt 0.714096 0.044780
vt 0.091722 0.144564
vt 0.091722 0.140015
vt 0.714096 0.021299
vt 0.313603 0.106730
vt 0.309949 0.180192
vt 0.061846 0.088949
vt 0.079537 0.013706
vt 0.309949 0.148222
vt 0.295912 0.123933
vt 0.130825 0.079655
vt 0.130825 0.087025
vt 0.965896 0.072552
vt 0.965896 0.062945
vt 0.739657 0.065176
vt 0.753694 0.070614
vt 0.517784 0.089969
vt 0.531822 0.114258
vt 0.987761 0.046038
vt 0.987761 0.065791
vt 0.753694 0.065165
vt 0.739657 0.024035
vt 0.531822 0.122679
vt 0.517784 0.081548
vt 0.923782 0.788975
vt 0.976386 0.953112
vt 0.747205 1.009224
vt 0.717531 0.689898
vt 0.507580 0.914720
vt 0.494670 0.595983
vt 0.109519 0.397049
vt 0.074499 1.009224
vt 0.252795 1.009224
vt 0.292113 0.496126
vt 0.492420 0.914720
vt 0.495867 0.590041
vt 0.492420 0.176799
vt 0.732045 0.252580
vt 0.271902 0.198405
vt 0.019107 0.176799
vt 0.507580 0.176799
vt 0.267955 0.198405
vt 0.747205 0.252580
vt 1.000000 0.176799
vt 0.938014 0.145752
vt 0.938014 0.099306
vt 0.000000 0.176799
vt 0.938014 0.119264
vt 0.938014 0.131457
vt 1.000000 0.176799
vn -0.9972 0.0714 -0.0209
vn -0.5043 0.8383 0.2070
vn -0.4961 0.4794 -0.7238
vn -0.4707 0.0053 -0.8823
vn 0.6621 0.4373 -0.6085
vn 0.9004 -0.0080 -0.4349
vn 0.9666 0.0855 0.2413
vn 0.7260 0.6868 -0.0356
vn 0.2747 0.6563 0.7027
vn 0.0555 0.1806 0.9820
vn -0.7333 0.6049 0.3102
vn -0.9773 -0.1046 0.1844
vn -0.4709 -0.8662 -0.1669
vn 0.8556 -0.4614 0.2347
vn 0.3763 -0.5129 0.7715
vn -0.6344 -0.6681 0.3888
vn -0.5217 0.8278 -0.2063
vn 0.5510 0.8260 -0.1191
vn -0.7251 0.6880 0.0295
vn 0.8830 0.4585 -0.0999
vn -0.2995 -0.7398 -0.6024
vn 0.7182 -0.5881 -0.3719
vn 0.7735 -0.6334 0.0231
vn -0.8123 -0.5794 -0.0673
vn 0.6839 -0.7048 -0.1885
vn -0.5960 -0.8012 -0.0533
vn 0.9992 -0.0296 -0.0258
vn 0.9906 -0.0019 -0.1364
vn -0.9662 -0.0327 -0.2556
vn -0.9962 0.0414 0.0769
s 1
f 30/1/1 14/2/2 4/3/3 22/4/4
f 22/5/4 4/6/3 8/7/5 23/8/6
f 27/9/7 20/10/8 6/11/9 24/12/10
f 24/13/10 6/14/9 2/15/11 21/16/12
f 11/17/13 15/18/14 5/19/15 1/20/16
f 20/21/8 12/22/17 2/23/11 6/24/9
f 8/25/5 4/26/3 14/27/2 18/28/18
f 18/28/18 14/27/2 13/29/19 19/30/20
f 19/30/20 13/29/19 12/22/17 20/21/8
f 3/31/21 7/32/22 17/33/23 9/34/24
f 9/34/24 17/33/23 16/35/25 10/36/26
f 10/36/26 16/35/25 15/18/14 11/17/13
f 23/37/6 8/38/5 18/39/18 25/40/27
f 25/40/27 18/39/18 19/41/20 26/42/28
f 26/42/28 19/41/20 20/10/8 27/9/7
f 21/43/12 2/44/11 12/45/17 28/46/29
f 28/46/29 12/45/17 13/47/19 29/48/30
f 29/48/30 13/47/19 14/2/2 30/1/1
f 10/49/26 29/48/30 30/1/1 9/50/24
f 11/51/13 28/46/29 29/48/30 10/49/26
f 1/52/16 21/43/12 28/46/29 11/51/13
f 16/53/25 26/42/28 27/9/7 15/54/14
f 17/55/23 25/40/27 26/42/28 16/53/25
f 7/56/22 23/37/6 25/40/27 17/55/23
f 5/57/15 24/13/10 21/16/12 1/58/16
f 15/54/14 27/9/7 24/12/10 5/59/15
f 3/60/21 22/5/4 23/8/6 7/61/22
f 9/50/24 30/1/1 22/4/4 3/62/21
